<?xml version="1.0" standalone="no"?>
<!DOCTYPE svg PUBLIC "-//W3C//DTD SVG 20010904//EN"
 "http://www.w3.org/TR/2001/REC-SVG-20010904/DTD/svg10.dtd">
<svg version="1.0" xmlns="http://www.w3.org/2000/svg"
 width="800.000000pt" height="800.000000pt" viewBox="0 0 800.000000 800.000000"
 preserveAspectRatio="xMidYMid meet">

<g transform="translate(0.000000,800.000000) scale(0.100000,-0.100000)"
fill="#000000" stroke="none">
<path d="M3554 7125 c-18 -13 -18 -17 -1 -115 36 -210 44 -228 86 -192 20 17
20 17 -4 142 -32 166 -33 167 -49 173 -8 3 -22 0 -32 -8z"/>
<path d="M2702 6848 c-6 -6 -12 -17 -12 -24 0 -9 217 -197 303 -261 33 -25 67
-17 67 16 0 20 -298 274 -328 279 -9 1 -23 -3 -30 -10z"/>
<path d="M4032 6530 c-105 -15 -212 -48 -318 -100 -99 -48 -119 -65 -108 -94
11 -28 33 -24 138 29 138 70 245 95 398 95 138 0 202 -15 325 -75 144 -71 248
-187 305 -341 19 -49 23 -79 23 -184 0 -111 -3 -132 -25 -184 l-25 -59 -75 1
c-41 2 -81 -2 -89 -7 -10 -7 -14 -26 -12 -65 2 -67 -17 -109 -61 -132 -68 -35
-157 8 -178 87 -11 39 -29 53 -56 42 -26 -10 -13 -87 23 -131 48 -59 77 -75
140 -80 47 -3 67 1 103 20 56 30 99 96 103 157 l2 43 45 -6 c25 -3 73 -7 108
-8 58 -3 66 -6 93 -36 23 -26 29 -41 29 -80 0 -58 -28 -97 -85 -116 -44 -15
-57 -44 -30 -66 13 -11 23 -11 58 0 92 27 152 137 127 231 -15 55 -84 125
-133 134 l-34 7 24 76 c30 93 33 233 8 327 -64 243 -258 431 -510 495 -91 23
-227 32 -313 20z"/>
<path d="M3498 6290 c-73 -39 -128 -136 -128 -226 0 -93 86 -232 136 -222 33
6 29 47 -7 82 -64 62 -76 139 -33 224 19 38 38 59 70 78 44 26 55 49 32 72
-16 16 -26 15 -70 -8z"/>
<path d="M3832 6167 c-25 -29 20 -154 79 -221 l30 -35 -43 -12 c-41 -11 -152
-8 -225 7 -26 5 -32 2 -38 -15 -4 -12 -2 -28 4 -35 39 -46 237 -48 336 -3 90
42 96 62 32 106 -24 16 -52 42 -61 56 l-17 26 53 -30 c175 -97 391 -103 576
-15 72 35 84 50 62 84 -10 16 -3 18 -125 -34 -116 -48 -238 -55 -365 -20 -72
21 -115 44 -195 104 -69 52 -86 58 -103 37z"/>
<path d="M2371 6083 c-7 -15 -7 -25 2 -38 11 -14 59 -22 253 -45 256 -30 275
-29 259 19 -8 26 -6 25 -240 51 -104 12 -206 24 -227 27 -29 4 -38 1 -47 -14z"/>
<path d="M4360 5818 c-19 -5 -47 -19 -63 -30 -54 -39 -12 -91 45 -55 44 28 83
30 139 6 50 -22 52 -22 65 -4 8 10 14 22 14 27 0 17 -44 47 -85 57 -51 13 -68
13 -115 -1z"/>
<path d="M3785 5775 c-57 -22 -87 -53 -74 -76 13 -24 35 -24 84 1 44 23 92 20
133 -6 33 -22 64 -9 60 24 -6 54 -123 87 -203 57z"/>
<path d="M4390 5625 c-27 -32 5 -175 39 -175 25 0 33 33 27 97 -9 88 -34 117
-66 78z"/>
<path d="M3526 5584 c-21 -8 -44 -18 -50 -23 -6 -4 -28 -11 -48 -15 -120 -22
-179 -196 -104 -305 36 -51 112 -91 176 -91 50 0 72 13 62 39 -8 23 -23 31
-60 31 -110 0 -178 116 -122 207 25 42 54 57 80 43 27 -14 57 -4 65 21 6 18
41 39 64 39 5 0 11 -23 15 -51 9 -65 46 -138 87 -173 99 -84 246 -77 338 15
39 38 70 102 71 141 0 32 12 40 64 48 42 5 63 27 52 55 -6 16 -16 17 -104 11
-53 -4 -102 -12 -109 -18 -20 -17 -15 -49 8 -55 18 -5 20 -11 15 -41 -23 -146
-223 -194 -314 -74 -23 30 -27 46 -29 110 -1 40 -4 80 -7 88 -7 19 -97 18
-150 -2z"/>
<path d="M3843 5564 c-3 -8 -3 -46 0 -82 7 -75 25 -99 59 -81 18 10 19 17 13
77 -4 37 -11 75 -16 85 -12 21 -48 22 -56 1z"/>
<path d="M4087 5303 c-29 -28 24 -108 77 -119 65 -12 122 42 81 76 -12 10 -21
10 -41 1 -29 -13 -49 -3 -59 30 -6 18 -44 27 -58 12z"/>
<path d="M4655 5248 c-2 -7 -6 -56 -8 -108 -5 -109 -21 -155 -84 -252 -129
-196 -388 -264 -603 -157 -128 64 -218 179 -255 323 -20 79 -21 81 -50 81 -29
0 -30 -1 -27 -44 9 -144 130 -328 264 -404 27 -16 41 -32 48 -57 13 -45 13
-63 0 -55 -18 11 -206 -116 -288 -193 l-34 -32 25 -44 24 -44 -196 -144 c-156
-115 -196 -150 -196 -168 0 -12 7 -27 16 -33 12 -8 53 18 190 119 96 71 186
137 201 146 l27 17 111 -174 c89 -140 116 -175 133 -175 24 1 196 144 224 186
24 38 7 63 -141 214 -96 98 -134 130 -150 128 -13 -2 -22 -12 -24 -27 -3 -19
21 -49 123 -151 70 -70 126 -133 124 -139 -2 -6 -36 -36 -74 -66 -54 -41 -73
-51 -81 -42 -6 7 -64 95 -129 197 l-117 185 38 33 c22 19 79 61 129 93 l90 60
21 -84 c25 -98 29 -107 54 -107 37 0 38 27 4 167 -31 133 -32 135 -10 128 11
-4 62 -9 111 -12 84 -5 160 6 228 32 16 7 17 -2 17 -103 0 -88 3 -112 16 -123
29 -23 49 1 52 65 2 31 5 56 8 56 14 0 234 -203 234 -216 0 -9 -5 -25 -11 -36
-14 -25 -247 -305 -278 -332 -20 -18 -21 -18 -57 10 -58 46 -60 48 -78 41 -34
-13 -18 -53 43 -106 32 -28 66 -51 74 -51 18 0 136 124 238 249 l73 91 61 -58
c398 -386 480 -462 495 -462 10 0 23 6 29 14 17 20 4 42 -56 96 -26 24 -146
139 -266 255 l-217 212 15 36 c13 32 13 42 2 70 -22 50 -275 275 -297 262 -6
-4 -10 9 -10 33 0 36 5 43 51 78 93 71 170 193 199 313 17 74 18 185 1 205
-16 19 -50 21 -56 4z"/>
<path d="M5863 5180 c-13 -5 -32 -24 -43 -42 -19 -31 -20 -44 -15 -208 4 -99
2 -196 -3 -223 -10 -50 2 -77 33 -77 22 0 32 28 46 120 9 67 9 109 -1 213 -14
130 -14 130 9 148 18 14 27 16 49 8 67 -25 92 -76 93 -186 0 -43 3 -96 7 -118
l8 -40 58 3 c32 2 72 -2 88 -9 54 -22 75 -103 41 -160 -22 -37 -9 -62 33 -67
61 -7 94 -66 94 -165 0 -72 -12 -115 -48 -169 -28 -44 -99 -93 -155 -110 -23
-7 -42 -20 -45 -30 -3 -14 -29 3 -126 85 -146 124 -141 121 -166 107 -37 -20
-21 -44 90 -134 189 -152 280 -235 280 -257 0 -11 -15 -41 -34 -68 l-33 -49
-217 120 c-119 65 -216 122 -216 126 0 4 18 74 39 156 40 149 41 170 15 180
-31 12 -43 -9 -79 -147 -21 -78 -40 -145 -42 -149 -2 -4 -15 -2 -28 4 -53 24
-77 -40 -25 -67 17 -9 30 -19 30 -24 0 -19 -111 -428 -124 -457 -8 -17 -12
-42 -9 -57 6 -31 39 -45 58 -26 7 8 40 122 75 254 34 132 65 243 69 247 7 8
394 -206 399 -221 2 -5 -26 -169 -63 -363 -36 -194 -77 -414 -91 -488 -63
-338 -119 -462 -251 -549 -82 -54 -167 -74 -296 -69 -72 3 -121 10 -137 19
-14 8 -26 14 -28 15 -4 2 46 331 75 493 24 137 25 145 8 157 -36 27 -51 2 -74
-118 -63 -338 -116 -774 -137 -1116 l-7 -114 -26 6 c-14 3 -78 9 -141 12 -129
7 -277 -5 -503 -42 -81 -13 -154 -24 -162 -24 -13 0 -15 143 -15 1169 0 1260
2 1209 -49 1181 l-21 -11 0 -1179 0 -1179 -52 -10 c-289 -59 -273 -54 -276
-84 -2 -17 2 -29 11 -33 9 -3 83 8 166 24 l151 29 0 -113 c0 -104 2 -114 21
-124 40 -22 49 1 49 131 0 136 -16 118 130 143 299 52 542 65 687 37 55 -11
76 -11 86 -3 10 9 16 50 21 140 7 137 32 430 42 500 6 41 8 43 33 38 108 -24
188 -28 276 -13 227 40 371 180 434 422 12 43 62 295 112 560 107 569 97 525
119 525 24 0 40 22 34 46 -3 12 7 36 27 63 62 86 58 125 -18 203 -26 26 -45
49 -42 51 2 2 25 11 51 21 88 32 171 117 204 207 41 109 10 265 -64 330 -34
30 -35 34 -33 93 2 50 -2 68 -21 95 -36 53 -71 74 -131 79 l-54 4 -10 98 c-16
162 -64 230 -167 237 -28 1 -61 -1 -73 -7z"/>
<path d="M3966 5114 c-29 -28 -18 -44 52 -77 64 -30 73 -32 185 -32 l117 0 0
-28 c0 -20 -11 -40 -34 -63 -29 -29 -41 -34 -81 -34 -42 0 -52 5 -93 45 -25
25 -48 45 -52 45 -13 0 -30 -25 -30 -45 0 -24 50 -79 90 -100 125 -64 270 24
275 168 1 34 7 52 18 59 10 5 17 18 17 28 0 35 -28 39 -99 14 -104 -37 -196
-31 -313 20 -33 14 -38 14 -52 0z"/>
<path d="M5915 4596 c-36 -16 -100 -84 -122 -131 -13 -28 -14 -37 -3 -50 22
-26 47 -17 73 28 64 108 152 134 196 56 25 -46 0 -92 -87 -162 -18 -14 -21
-21 -12 -37 19 -35 56 -25 110 29 94 94 89 215 -10 266 -35 18 -105 19 -145 1z"/>
<path d="M1558 4294 c-14 -13 -8 -52 8 -58 9 -3 33 -6 54 -6 57 0 176 -25 252
-53 108 -39 216 -106 305 -191 85 -80 116 -125 42 -63 -116 100 -411 199 -703
238 -143 18 -144 52 17 -438 130 -397 207 -648 207 -678 0 -33 51 -66 192
-123 81 -33 167 -71 191 -86 42 -24 45 -29 56 -88 30 -157 78 -254 168 -338
72 -68 109 -83 130 -55 16 23 0 53 -39 72 -41 21 -108 100 -139 166 -32 69
-54 163 -64 277 -5 59 -18 100 -57 189 -65 148 -78 186 -78 227 0 30 3 34 25
34 14 0 34 -5 44 -12 39 -24 77 18 46 52 -50 55 -146 43 -178 -22 -17 -34 -17
-41 -2 -103 8 -36 40 -120 70 -185 30 -65 55 -126 55 -134 0 -12 -17 -7 -74
20 -41 19 -118 52 -171 72 l-97 37 -54 182 c-29 101 -103 333 -164 517 -60
184 -110 337 -110 341 0 9 92 -2 209 -26 198 -40 424 -134 490 -203 26 -28 32
-49 67 -234 40 -214 50 -237 90 -208 18 14 17 19 -14 188 -18 95 -32 179 -32
186 0 8 17 12 49 12 42 0 61 8 137 56 192 121 392 201 644 257 l25 6 -3 -547
-3 -546 -126 -28 c-70 -15 -149 -35 -176 -44 -45 -15 -51 -15 -87 1 -22 10
-47 14 -59 10 -18 -5 -21 -2 -21 24 0 42 -18 77 -47 90 -34 16 -53 14 -90 -9
-52 -31 -86 -113 -102 -248 -10 -80 -6 -92 25 -92 30 0 39 20 54 120 14 95 43
163 67 158 20 -4 22 -39 13 -248 l-5 -105 27 -3 c31 -4 30 -4 53 123 16 86 36
128 52 111 10 -9 5 -257 -7 -385 -7 -79 -14 -102 -40 -144 -36 -58 -36 -81 2
-85 23 -3 32 4 58 45 17 26 35 64 40 83 10 41 30 298 30 398 l0 69 71 21 c39
12 126 33 193 47 66 15 127 30 135 34 12 6 15 99 17 597 2 324 1 597 -2 607
-8 26 -65 22 -216 -17 -182 -47 -372 -125 -529 -216 l-54 -32 45 47 c105 109
300 210 458 237 80 13 106 34 81 65 -17 20 -90 12 -201 -23 -161 -51 -300
-136 -411 -253 l-58 -60 -67 71 c-171 181 -392 291 -617 305 -49 3 -93 2 -97
-3z"/>
<path d="M2276 3295 c-41 -45 -64 -229 -30 -242 33 -13 49 11 56 86 11 101 35
136 68 97 16 -20 24 -152 12 -205 -13 -56 -7 -73 27 -69 33 4 50 48 50 135 2
146 -39 223 -119 223 -31 0 -47 -6 -64 -25z"/>
<path d="M3122 2837 c-9 -11 -1 -58 33 -208 88 -379 144 -780 166 -1184 12
-224 18 -247 60 -224 23 12 24 72 9 299 -24 346 -75 708 -144 1030 -55 254
-68 294 -92 298 -11 2 -26 -3 -32 -11z"/>
<path d="M2547 2263 c-17 -16 -3 -46 49 -102 65 -70 148 -116 241 -132 61 -11
64 -10 160 30 54 23 104 45 112 49 23 13 35 38 27 57 -9 23 -37 17 -155 -32
-88 -37 -98 -39 -145 -30 -71 12 -140 52 -196 114 -44 48 -76 64 -93 46z"/>
</g>
</svg>
